# xmcd
#
# Track frame offsets:
#	150
#	18022
#	31437
#	46661
#	62077
#	78486
#	92054
#	107746
#	125259
#	139651
#	156159
#	174635
#
# Disc length: 2525 seconds
#
# Revision: 0
# Processed by: cddbd v1.5.1PL2 Copyright (c) Steve Scherf et al.
# Submitted via: dBpowerAMP V4.0
#
DISCID=9009db0c
DTITLE=Toby Keith - White Trash With Money
DYEAR=2006
DGENRE=Country
TTITLE0=Runnin Block Track 1
TTITLE1=Get Drunk And Be Somebody Track 2
TTITLE2=Too Far This Time Track 
TTITLE3=4.  Brand New Bow               
TTITLE4=5.  Note To Self
TTITLE5=6,  Crash Here Tonight
TTITLE6=7. Can't Buy You Money
TTITLE7=8. Ain't No Right Way
TTITLE8=9. Grain of Salt
TTITLE9=10. I Ain't Already
TTITLE10=11. A Little To Late
TTITLE11=12. Hell No
EXTD=Toby Keith White Trash With Money
EXTT0=
EXTT1=
EXTT2=
EXTT3=
EXTT4=
EXTT5=
EXTT6=
EXTT7=
EXTT8=
EXTT9=
EXTT10=
EXTT11=
PLAYORDER=
